<?xml version="1.0" encoding="UTF-8" standalone="no"?>


<svg
   xmlns:dc="http://purl.org/dc/elements/1.1/"
   xmlns:cc="http://creativecommons.org/ns#"
   xmlns:rdf="http://www.w3.org/1999/02/22-rdf-syntax-ns#"
   xmlns:svg="http://www.w3.org/2000/svg"
   xmlns="http://www.w3.org/2000/svg"
   xmlns:sodipodi="http://sodipodi.sourceforge.net/DTD/sodipodi-0.dtd"
   xmlns:inkscape="http://www.inkscape.org/namespaces/inkscape"
   width="30"
   height="30"
   viewBox="0 0 30 30"
   version="1.1"
   id="svg822"
   inkscape:version="0.92.4 (f8dce91, 2019-08-02)"
   sodipodi:docname="2g.svg">
  <defs
     id="defs816" />
  <sodipodi:namedview
     id="base"
     pagecolor="#ffffff"
     bordercolor="#666666"
     borderopacity="1.0"
     inkscape:pageopacity="0.0"
     inkscape:pageshadow="2"
     inkscape:zoom="11.313708"
     inkscape:cx="13.082728"
     inkscape:cy="13.417941"
     inkscape:document-units="px"
     inkscape:current-layer="layer1"
     showgrid="true"
     units="px"
     inkscape:window-width="1366"
     inkscape:window-height="713"
     inkscape:window-x="0"
     inkscape:window-y="0"
     inkscape:window-maximized="1"
     showguides="false"
     inkscape:guide-bbox="true">
    <sodipodi:guide
       position="21.126168,22.794393"
       orientation="1,0"
       id="guide1575"
       inkscape:locked="false" />
    <sodipodi:guide
       position="22.682243,23.285047"
       orientation="1,0"
       id="guide1635"
       inkscape:locked="false" />
    <sodipodi:guide
       position="22.682243,7.6455921"
       orientation="0,1"
       id="guide1639"
       inkscape:locked="false" />
    <sodipodi:guide
       position="18.859863,18.859863"
       orientation="1,0"
       id="guide1242"
       inkscape:locked="false" />
    <inkscape:grid
       type="xygrid"
       id="grid1103" />
  </sodipodi:namedview>
  <metadata
     id="metadata819">
    <rdf:RDF>
      <cc:Work
         rdf:about="">
        <dc:format>image/svg+xml</dc:format>
        <dc:type
           rdf:resource="http://purl.org/dc/dcmitype/StillImage" />
        <dc:title></dc:title>
      </cc:Work>
    </rdf:RDF>
  </metadata>
  <g
     inkscape:label="Layer 1"
     inkscape:groupmode="layer"
     id="layer1"
     transform="translate(0,-289.0625)">
    <g
       aria-label="2G"
       style="font-style:normal;font-variant:normal;font-weight:normal;font-stretch:normal;font-size:22.161623px;line-height:1.25;font-family:FiraGO;-inkscape-font-specification:FiraGO;letter-spacing:0px;word-spacing:0px;fill:#000000;fill-opacity:1;stroke:none;stroke-width:1"
       id="text873">
      <path
         d="m 7.9863658,296.50537 q 1.5513136,0 2.6815562,0.5762 1.130243,0.55405 1.706445,1.52916 0.598364,0.95295 0.598364,2.12751 0,1.21889 -0.531879,2.34913 -0.509717,1.13025 -1.77293,2.54859 -1.2410508,1.41835 -3.634506,3.65667 h 6.271739 l -0.354586,2.43778 H 3.443233 v -2.28265 q 2.7923645,-2.79236 4.0334154,-4.16638 1.2410509,-1.37403 1.7507682,-2.32697 0.5097174,-0.95295 0.5097174,-1.95023 0,-0.95295 -0.5540406,-1.50699 -0.5540406,-0.55404 -1.4848287,-0.55404 -0.8199801,0 -1.4626672,0.37675 -0.642687,0.35458 -1.351859,1.19673 l -1.8837379,-1.50699 q 1.9058996,-2.50427 4.9863652,-2.50427 z"
         style="font-style:normal;font-variant:normal;font-weight:600;font-stretch:normal;font-family:FiraGO;-inkscape-font-specification:'FiraGO Semi-Bold';stroke-width:1"
         id="path875" />
      <path
         d="m 21.902826,296.03998 q 1.551314,0 2.748041,0.48755 1.21889,0.4654 2.260486,1.35186 l -1.706445,1.77293 q -0.81998,-0.62052 -1.551314,-0.90862 -0.709172,-0.2881 -1.617798,-0.2881 -1.750768,0 -2.836688,1.39618 -1.063758,1.37402 -1.063758,4.21071 0,2.99182 0.81998,4.29935 0.842142,1.28538 2.59291,1.28538 1.263213,0 2.282647,-0.55405 v -3.74531 H 21.68121 l -0.332424,-2.37129 h 5.651213 v 7.55711 q -1.196727,0.73133 -2.592909,1.1524 -1.374021,0.39891 -2.792365,0.39891 -3.390728,0 -5.141496,-2.03887 -1.750769,-2.03886 -1.750769,-6.0058 0,-2.50426 0.95295,-4.32151 0.95295,-1.81726 2.570748,-2.74804 1.63996,-0.93079 3.656668,-0.93079 z"
         style="font-style:normal;font-variant:normal;font-weight:600;font-stretch:normal;font-family:FiraGO;-inkscape-font-specification:'FiraGO Semi-Bold';stroke-width:1"
         id="path877" />
    </g>
  </g>
</svg>
