<?xml version="1.0" encoding="iso-8859-1"?>
<!-- Generator: Adobe Illustrator 19.0.0, SVG Export Plug-In . SVG Version: 6.00 Build 0)  -->
<svg version="1.1" id="Capa_1" xmlns="http://www.w3.org/2000/svg" xmlns:xlink="http://www.w3.org/1999/xlink" x="0px" y="0px"
	 viewBox="0 0 390 390" style="enable-background:new 0 0 390 390;" xml:space="preserve">
<g id="XMLID_1010_">
	<g id="XMLID_1011_">
		<g id="XMLID_1012_">
			<g id="XMLID_1013_">
				<g id="XMLID_1014_">
					<rect id="XMLID_70_" x="25" y="70" style="fill:#D77258;" width="340" height="242.344"/>
					<rect id="XMLID_1018_" x="195" y="70" style="fill:#D14F4E;" width="170" height="242.344"/>
				</g>
				<g id="XMLID_1019_">
					<rect id="XMLID_63_" x="55" y="96.302" style="fill:#DEDFE8;" width="280" height="175.521"/>
					<rect id="XMLID_1023_" x="195" y="96.302" style="fill:#C9C7D7;" width="140" height="175.521"/>
				</g>
			</g>
			<rect id="XMLID_55_" y="270" style="fill:#D77258;" width="390" height="50"/>
		</g>
		<rect id="XMLID_1027_" x="195" y="270" style="fill:#D14F4E;" width="195" height="50"/>
	</g>
	<g id="XMLID_1028_">
		<polygon id="XMLID_1031_" style="fill:#6DA8D6;" points="130.832,240 195,123.665 259.168,240 		"/>
		<polygon id="XMLID_44_" style="fill:#DEDFE8;" points="202.864,205.109 187.136,205.109 185.564,167.363 204.436,167.363 		"/>
		<rect id="XMLID_41_" x="187.136" y="214.546" style="fill:#DEDEE1;" width="15.727" height="12.582"/>
		<polygon id="XMLID_1036_" style="fill:#2974A8;" points="195,123.665 195,240 259.168,240 		"/>
		<rect id="XMLID_1039_" x="195" y="214.546" style="fill:#C9C7D7;" width="7.864" height="12.582"/>
		<polygon id="XMLID_1042_" style="fill:#C9C7D7;" points="195,167.363 195,205.109 202.864,205.109 204.436,167.363 		"/>
	</g>
</g>
<g>
</g>
<g>
</g>
<g>
</g>
<g>
</g>
<g>
</g>
<g>
</g>
<g>
</g>
<g>
</g>
<g>
</g>
<g>
</g>
<g>
</g>
<g>
</g>
<g>
</g>
<g>
</g>
<g>
</g>
</svg>
