<?xml version="1.0" encoding="iso-8859-1"?>
<!-- Generator: Adobe Illustrator 19.0.0, SVG Export Plug-In . SVG Version: 6.00 Build 0)  -->
<svg version="1.1" id="Layer_1" xmlns="http://www.w3.org/2000/svg" xmlns:xlink="http://www.w3.org/1999/xlink" x="0px" y="0px"
	 viewBox="0 0 472.574 472.574" style="enable-background:new 0 0 472.574 472.574;" xml:space="preserve">
<g>
	<g>
		<path d="M20.045,31.158v164.529h452.529V31.158H20.045z M159.157,157.458l-19.677,0.19l-8.331-26.445l-8.327,26.445l-19.676-0.19
			L78.966,75.177l19.736-5.805l14.655,49.858l7.985-25.361h19.615l7.991,25.361l14.649-49.858l19.736,5.805L159.157,157.458z
			 M274.346,157.458l-19.676,0.19l-8.327-26.445l-8.327,26.445l-19.676-0.19L194.16,75.177l19.737-5.805l14.654,49.858l7.985-25.361
			h19.616l7.985,25.361l14.654-49.858l19.737,5.805L274.346,157.458z M389.541,157.458l-19.677,0.19l-8.327-26.445l-8.331,26.445
			l-19.677-0.19l-24.175-82.281l19.736-5.805l14.65,49.858l7.989-25.361h19.617l7.984,25.361l14.654-49.858l19.737,5.805
			L389.541,157.458z"/>
	</g>
</g>
<g>
	<g>
		<path d="M113.541,357.573c16.264,45.582,42.02,77.652,71.093,83.843V340.194C159.692,341.481,135.693,347.382,113.541,357.573z"/>
	</g>
</g>
<g>
	<g>
		<path d="M95.773,257.406c0.804,28.69,4.839,55.988,11.527,80.355c24.154-10.756,50.259-16.875,77.335-18.139v-62.217H95.773z"/>
	</g>
</g>
<g>
	<g>
		<path d="M96.936,216.265c-0.566,6.762-0.969,13.62-1.164,20.571h88.862v-20.571H96.936z"/>
	</g>
</g>
<g>
	<g>
		<path d="M2.284,216.265C1.209,223.049,0.359,229.893,0,236.836h75.208c0.175-6.976,0.607-13.801,1.12-20.571H2.284z"/>
	</g>
</g>
<g>
	<g>
		<path d="M94.768,367.53c-11.161,6.717-21.679,14.591-31.461,23.579c20.247,18.607,43.683,32.499,69.148,41.08
			C117.348,415.881,104.454,393.908,94.768,367.53z"/>
	</g>
</g>
<g>
	<g>
		<path d="M75.208,257.406H0c2.301,44.362,19.368,85.939,48.877,119.065c12.164-11.252,25.331-21.021,39.411-29.067
			C80.589,320.42,76.023,289.957,75.208,257.406z"/>
	</g>
</g>
<g>
	<g>
		<path d="M387.553,216.265H313.51c0.513,6.769,0.943,13.595,1.118,20.571h75.209C389.477,229.893,388.629,223.049,387.553,216.265z
			"/>
	</g>
</g>
<g>
	<g>
		<path d="M314.63,257.406c-0.815,32.551-5.382,63.014-13.081,89.998c14.08,8.047,27.247,17.815,39.411,29.069
			c29.515-33.144,46.576-74.716,48.877-119.067H314.63z"/>
	</g>
</g>
<g>
	<g>
		<path d="M295.07,367.53c-9.687,26.378-22.582,48.352-37.688,64.662c25.47-8.583,48.912-22.476,69.152-41.081
			C316.751,382.122,306.231,374.247,295.07,367.53z"/>
	</g>
</g>
<g>
	<g>
		<path d="M205.204,257.406v62.217c27.075,1.263,53.181,7.383,77.335,18.139c6.688-24.367,10.721-51.666,11.526-80.355H205.204z"/>
	</g>
</g>
<g>
	<g>
		<path d="M205.204,340.194v101.222c29.073-6.191,54.829-38.261,71.093-83.843C254.145,347.382,230.146,341.481,205.204,340.194z"/>
	</g>
</g>
<g>
	<g>
		<path d="M292.901,216.265h-87.698v20.571h88.861C293.869,229.885,293.468,223.028,292.901,216.265z"/>
	</g>
</g>
<g>
</g>
<g>
</g>
<g>
</g>
<g>
</g>
<g>
</g>
<g>
</g>
<g>
</g>
<g>
</g>
<g>
</g>
<g>
</g>
<g>
</g>
<g>
</g>
<g>
</g>
<g>
</g>
<g>
</g>
</svg>
