<?xml version="1.0" encoding="iso-8859-1"?>
<!-- Generator: Adobe Illustrator 19.0.0, SVG Export Plug-In . SVG Version: 6.00 Build 0)  -->
<svg version="1.1" id="Layer_1" xmlns="http://www.w3.org/2000/svg" xmlns:xlink="http://www.w3.org/1999/xlink" x="0px" y="0px"
	 viewBox="0 0 512 512" style="enable-background:new 0 0 512 512;" xml:space="preserve">
<g>
	<g>
		<g>
			<path d="M303.426,70.049h-15.894c-18.903,0-36.003,8.796-48.148,24.767c-13.806,18.156-20.806,44.475-20.806,78.229
				c0,29.179,6.574,53.59,19.01,70.595c13.15,17.979,32.327,27.482,55.46,27.482h10.379c5.633,0,10.199-4.566,10.199-10.198V80.248
				C313.626,74.616,309.059,70.049,303.426,70.049z M293.227,250.723h-0.18c-34.363,0-54.072-28.313-54.072-77.678
				c0-60.899,25.083-82.597,48.556-82.597h5.695V250.723z"/>
			<path d="M382.263,8.897C376.368,3.16,368.183,0,359.216,0h-69.845c-40.396,0-77.67,15.568-104.957,43.835
				c-31.015,32.13-47.408,78.936-47.408,135.358c0,60.023,24.468,108.609,69.164,137.949l-81.264,147.09
				c-5.845,10.552-5.902,22.677-0.151,32.435c5.657,9.602,15.897,15.333,27.392,15.333h43.496c13.742,0,25.112-7.071,30.481-18.933
				l67.103-131.252v120.331c0,16.182,13.662,29.853,29.832,29.853h37.998c17.652,0,30.464-12.811,30.463-30.462V31.711
				C391.52,22.81,388.233,14.706,382.263,8.897z M371.123,481.538c0,6.302-3.763,10.064-10.066,10.064h-37.998
				c-5.025,0-9.433-4.418-9.433-9.455V330.969c0-5.632-4.566-10.199-10.199-10.199h-5.884c-3.83,0-7.337,2.146-9.08,5.555
				l-80.62,157.689c-0.088,0.171-0.171,0.346-0.249,0.522c-2.069,4.688-6.09,7.064-11.95,7.064h-43.496
				c-4.257,0-7.836-1.928-9.819-5.291c-2.045-3.47-1.888-8.027,0.426-12.203l85.984-155.634c2.699-4.883,0.971-11.028-3.876-13.792
				c-44.132-25.16-67.459-68.554-67.459-125.487c0-109.693,66.281-158.794,131.967-158.794h69.845c3.676,0,6.725,1.078,8.82,3.116
				c2.018,1.964,3.084,4.798,3.084,8.196V481.538z"/>
		</g>
	</g>
</g>
<g>
	<g>
		<path d="M351.879,321.275c-5.633,0-10.199,4.567-10.199,10.199v4.08c0,5.632,4.566,10.199,10.199,10.199
			c5.633,0,10.199-4.567,10.199-10.199v-4.08C362.078,325.842,357.512,321.275,351.879,321.275z"/>
	</g>
</g>
<g>
	<g>
		<path d="M351.879,361.052c-5.633,0-10.199,4.567-10.199,10.199v100.972c0,5.632,4.566,10.199,10.199,10.199
			c5.633,0,10.199-4.567,10.199-10.199V371.251C362.078,365.619,357.512,361.052,351.879,361.052z"/>
	</g>
</g>
<g>
</g>
<g>
</g>
<g>
</g>
<g>
</g>
<g>
</g>
<g>
</g>
<g>
</g>
<g>
</g>
<g>
</g>
<g>
</g>
<g>
</g>
<g>
</g>
<g>
</g>
<g>
</g>
<g>
</g>
</svg>
